<svg width="32" height="32" viewBox="0 0 32 32" fill="none" xmlns="http://www.w3.org/2000/svg">
    <line x1="1" x2="5" y1="1" y2="1" stroke="darkorange" stroke-linecap="round"/>
    <line x1="7" x2="15" y1="1" y2="1" stroke="black" stroke-linecap="round"/>

    <line x1="1" x2="4" y1="5" y2="5" stroke="darkorange" stroke-linecap="round"/>
    <line x1="6" x2="9" y1="5" y2="5" stroke="darkorange" stroke-linecap="round"/>
    <line x1="11" x2="17" y1="5" y2="5" stroke="black" stroke-linecap="round"/>

    <line x1="1" x2="4" y1="7" y2="7" stroke="darkorange" stroke-linecap="round"/>
    <line x1="6" x2="9" y1="7" y2="7" stroke="darkorange" stroke-linecap="round"/>
    <line x1="11" x2="19" y1="7" y2="7" stroke="black" stroke-linecap="round"/>

    <line x1="1" x2="4" y1="11" y2="11" stroke="darkorange" stroke-linecap="round"/>
    <line x1="6" x2="9" y1="11" y2="11" stroke="black" stroke-linecap="round"/>

    <line x1="1" x2="4" y1="13" y2="13" stroke="darkorange" stroke-linecap="round"/>
    <line x1="6" x2="8" y1="13" y2="13" stroke="black" stroke-linecap="round"/>

    <line x1="1" x2="3" y1="17" y2="17" stroke="darkorange" stroke-linecap="round"/>
    <line x1="5" x2="10" y1="17" y2="17" stroke="black" stroke-linecap="round"/>
    <line x1="12" x2="17" y1="17" y2="17" stroke="darkorange" stroke-linecap="round"/>
    <line x1="19" x2="26" y1="17" y2="17" stroke="black" stroke-linecap="round"/>

    <line x1="2" x2="4" y1="19" y2="19" stroke="darkorange" stroke-linecap="round"/>
    <line x1="6" x2="7" y1="19" y2="19" stroke="darkorange" stroke-linecap="round"/>
    <line x1="9" x2="14" y1="19" y2="19" stroke="yellow" stroke-linecap="round"/>
    <line x1="16" x2="18" y1="19" y2="19" stroke="darkorange" stroke-linecap="round"/>
    <line x1="20" x2="22" y1="19" y2="19" stroke="black" stroke-linecap="round"/>
    <line x1="24" x2="25" y1="19" y2="19" stroke="darkorange" stroke-linecap="round"/>
    <line x1="27" x2="29" y1="19" y2="19" stroke="black" stroke-linecap="round"/>

    <line x1="3" x2="5" y1="21" y2="21" stroke="darkorange" stroke-linecap="round"/>
    <line x1="7" x2="18" y1="21" y2="21" stroke="black" stroke-linecap="round"/>

    <line x1="5" x2="11" y1="23" y2="23" stroke="black" stroke-linecap="round"/>
    <line x1="5" x2="23" y1="25" y2="25" stroke="black" stroke-linecap="round"/>
    <line x1="5" x2="9" y1="27" y2="27" stroke="black" stroke-linecap="round"/>
    <line x1="5" x2="11" y1="29" y2="29" stroke="black" stroke-linecap="round"/>
</svg>
